<svg xmlns="http://www.w3.org/2000/svg" width="221.143" height="67.11" viewBox="0 0 221.143 67.11">
  <defs>
    <style>
      .a { fill: #FFFFFF; }
      .b { fill: #FFFFFF; }
      .c { isolation: isolate; }
    </style>
  </defs>
  <g transform="translate(-255.101 -26.434)">
    <path class="a" d="M80.76,169.922l-39.65,66.9h9.167l32.246-56.742V236.82H89.71v-66.9Z" transform="translate(213.991 -143.488)"></path>
    <path class="b" d="M68.517,182.34l-7.233,12.715v34.833h7.233Z" transform="translate(225.251 -136.557)"></path>
    <path class="b" d="M73.817,182.34l7.231,12.715v34.833H73.817Z" transform="translate(232.247 -136.557)"></path>
    <g transform="translate(353.646 57.606)">
      <g class="c">
        <path class="a" d="M111.512,195.632c0-2.326-.469-3.333-1.924-3.333-1.631,0-2.013,1.633-2.013,6.152,0,4.833.672,5.706,2.058,5.706,1.164,0,2.015-.6,2.015-4.05h3.221c0,3.445-.849,6.421-5.078,6.421-4.833,0-5.436-3.445-5.436-8.3s.6-8.3,5.436-8.3c4.609,0,4.944,3.378,4.944,5.7Z" transform="translate(-104.354 -189.928)"></path>
        <path class="a" d="M117.5,189.928c4.832,0,5.436,3.445,5.436,8.3s-.6,8.3-5.436,8.3-5.436-3.445-5.436-8.3S112.664,189.928,117.5,189.928Zm0,14.229c1.9,0,2.214-1.633,2.214-5.929,0-4.274-.313-5.929-2.214-5.929s-2.216,1.655-2.216,5.929C115.282,202.524,115.595,204.157,117.5,204.157Z" transform="translate(-100.052 -189.928)"></path>
        <path class="a" d="M123.971,190.129l3.892,10.94h.045v-10.94h2.953V206.1h-3.669l-3.937-11.186h-.045V206.1h-2.953V190.129Z" transform="translate(-95.478 -189.816)"></path>
        <path class="a" d="M131.314,201.226v.469c0,1.5.425,2.462,2.125,2.462a1.841,1.841,0,0,0,1.924-1.969c0-1.454-.739-1.99-2.864-2.73-2.864-.983-4.184-2.169-4.184-4.832,0-3.11,1.9-4.7,4.944-4.7,2.864,0,4.946,1.231,4.946,4.3v.447h-3.088c0-1.5-.514-2.372-1.745-2.372a1.65,1.65,0,0,0-1.836,1.857c0,.983.291,1.588,1.656,2.169l2.484,1.075c2.417,1.05,3.043,2.281,3.043,4.229,0,3.377-2.058,4.9-5.549,4.9-3.648,0-5.08-1.7-5.08-4.654v-.648Z" transform="translate(-91.104 -189.928)"></path>
        <path class="a" d="M139.035,190.129V201.27c0,1.589.38,2.775,1.879,2.775s1.879-1.186,1.879-2.775V190.129h3.222V201.27c0,4.073-2.482,5.147-5.1,5.147s-5.1-.873-5.1-5.147V190.129Z" transform="translate(-86.794 -189.816)"></path>
        <path class="a" d="M143.708,190.129h4.787l2.283,11.276h.045l2.3-11.276h4.765V206.1h-2.953V193.35h-.045L152.052,206.1h-2.5l-2.842-12.754h-.045V206.1h-2.953Z" transform="translate(-82.388 -189.816)"></path>
        <path class="a" d="M163.212,190.129v2.64h-5.7v3.758h5.369v2.641h-5.369v4.3h5.929v2.64h-9.151V190.129Z" transform="translate(-76.485 -189.816)"></path>
        <path class="a" d="M161.188,190.129h5.952c2.639,0,4.251,1.387,4.251,4.117,0,2.125-.851,3.557-2.663,3.937v.045c2.194.29,2.529,1.5,2.574,4.877.022,1.678.111,2.551.715,2.864v.134h-3.49a3.108,3.108,0,0,1-.4-1.678l-.089-3.065c-.045-1.253-.6-2.015-1.9-2.015H164.41V206.1h-3.222Zm3.222,6.981h1.343a2.1,2.1,0,0,0,2.415-2.395,1.982,1.982,0,0,0-2.238-2.214H164.41Z" transform="translate(-72.632 -189.816)"></path>
        <path class="a" d="M181.33,200.846a6.538,6.538,0,0,0,.559-2.417h2.774a8.294,8.294,0,0,1-1.633,4.72l2.1,2.954H181.71l-.894-1.231a5.08,5.08,0,0,1-3.849,1.544c-4.05,0-4.9-2.819-4.9-4.609,0-1.857,1.231-3.378,3.222-4.609l-.559-.827a4.537,4.537,0,0,1-1.074-2.886c0-2.082,1.678-3.356,4.071-3.356,2.73,0,3.983,1.477,3.983,3.333,0,1.589-.894,2.82-2.774,4.14Zm-4.542-1.745a3.3,3.3,0,0,0-1.633,2.707,2.131,2.131,0,0,0,2.238,2.1,2.517,2.517,0,0,0,2.08-1.007Zm.313-3.961.38.538.583-.492a2.3,2.3,0,0,0,1.007-1.745,1.276,1.276,0,0,0-1.41-1.342,1.262,1.262,0,0,0-1.365,1.3A3.323,3.323,0,0,0,177.1,195.14Z" transform="translate(-66.56 -189.816)"></path>
      </g>
      <g class="c" transform="translate(0.335 19.427)">
        <path class="a" d="M104.569,202.568h5.951c2.641,0,4.252,1.387,4.252,4.117,0,2.125-.851,3.557-2.663,3.937v.045c2.192.29,2.527,1.5,2.573,4.877.022,1.678.112,2.551.717,2.864v.134h-3.49a3.122,3.122,0,0,1-.4-1.678l-.089-3.065c-.045-1.253-.6-2.015-1.9-2.015h-1.722v6.758h-3.222Zm3.222,6.981h1.342a2.1,2.1,0,0,0,2.417-2.395,1.982,1.982,0,0,0-2.238-2.214h-1.521Z" transform="translate(-104.569 -202.3)"></path>
        <path class="a" d="M121.476,202.568v2.64h-5.7v3.758h5.368v2.641h-5.368V215.9H121.7v2.641h-9.149V202.568Z" transform="translate(-100.115 -202.3)"></path>
        <path class="a" d="M129.108,202.568v2.64h-3.49v13.335H122.4V205.208h-3.489v-2.64Z" transform="translate(-96.566 -202.3)"></path>
        <path class="a" d="M129.063,202.568h3.983l4.229,15.974h-3.356l-.739-3.378h-4.251l-.739,3.378h-3.356Zm.425,9.957h3.132l-1.544-7.183h-.044Z" transform="translate(-93.258 -202.3)"></path>
        <path class="a" d="M133.632,218.542V202.568h3.222v15.974Z" transform="translate(-88.347 -202.3)"></path>
        <path class="a" d="M137.235,218.542V202.568h3.222V215.9h5.7v2.641Z" transform="translate(-86.336 -202.3)"></path>
        <path class="a" d="M151.978,211.7v-1.209H157.1v8.145h-1.119V216h-.044a3.745,3.745,0,0,1-3.514,2.909c-3.266,0-5.1-2.527-5.1-8.255s1.835-8.255,5.1-8.255c3.043,0,4.408,1.99,4.587,4.741h-1.432c0-1.923-1.052-3.534-3.155-3.534-2.283,0-3.669,1.879-3.669,7.048s1.387,7.048,3.669,7.048c2.149,0,3.333-1.924,3.333-5.661V211.7Z" transform="translate(-80.705 -202.396)"></path>
        <path class="a" d="M155.118,202.568h4.765c2.663,0,4.14,1.521,4.14,4,0,1.924-.76,3.648-2.887,4.05v.045c1.991.178,2.663,1.32,2.73,3.78l.045,1.745a3.513,3.513,0,0,0,.672,2.35H162.9a4.8,4.8,0,0,1-.425-2.238l-.045-1.343c-.089-2.819-.6-3.713-3.177-3.713H156.55v7.294h-1.432Zm1.432,7.473h2.46c2.259,0,3.581-1.03,3.581-3.132,0-1.948-.829-3.133-3.423-3.133H156.55Z" transform="translate(-76.355 -202.3)"></path>
        <path class="a" d="M167.308,202.4c3.267,0,5.1,2.527,5.1,8.255s-1.834,8.255-5.1,8.255-5.1-2.527-5.1-8.255S164.042,202.4,167.308,202.4Zm0,15.3c2.283,0,3.669-1.879,3.669-7.048s-1.387-7.048-3.669-7.048-3.669,1.879-3.669,7.048S165.027,217.7,167.308,217.7Z" transform="translate(-72.397 -202.396)"></path>
        <path class="a" d="M170.13,202.568h1.432v11.477c0,2.393,1.028,3.557,3.133,3.557s3.13-1.164,3.13-3.557V202.568h1.432v11.5c0,3.356-1.633,4.743-4.562,4.743s-4.565-1.387-4.565-4.743Z" transform="translate(-67.976 -202.3)"></path>
        <path class="a" d="M177.45,202.568h4.318c3.088,0,4.386,1.812,4.386,4.519,0,2.462-1.231,4.52-4.879,4.52h-2.393v6.935H177.45Zm1.432,7.83h2.439c1.9,0,3.4-.849,3.4-3.311,0-2.393-1.209-3.311-3.4-3.311h-2.439Z" transform="translate(-63.89 -202.3)"></path>
      </g>
    </g>
    <g transform="translate(318.153 69.942)">
      <path class="a" d="M83.951,201.243a2.186,2.186,0,0,1-.284-1.017,2.076,2.076,0,0,1,.865-1.7,3.618,3.618,0,0,1,2.3-.675,3.3,3.3,0,0,1,2.142.623,1.889,1.889,0,0,1,.767,1.5,2.408,2.408,0,0,1-.793,1.781,7.693,7.693,0,0,1-1.558,1.03l2.4,2.29c.146-.385.249-.672.312-.857a6.132,6.132,0,0,0,.179-.8h1.572a6.452,6.452,0,0,1-.609,1.949c-.3.614-.453.868-.453.743l2.3,2.242H91.048l-1.237-1.173a6.238,6.238,0,0,1-1.342.913,5.629,5.629,0,0,1-2.456.508,4.253,4.253,0,0,1-2.985-.879,2.7,2.7,0,0,1-.935-1.982A2.528,2.528,0,0,1,83,203.749a10.315,10.315,0,0,1,2.068-1.215,5.685,5.685,0,0,1-1.12-1.292m3.9,5.891a3.519,3.519,0,0,0,1.1-.816l-2.978-2.9a8.844,8.844,0,0,0-1.633,1.03,1.7,1.7,0,0,0-.589,1.314,1.415,1.415,0,0,0,.762,1.289,3.149,3.149,0,0,0,1.636.449,3.7,3.7,0,0,0,1.7-.365m-.125-5.952a1.464,1.464,0,0,0,.525-1.091,1.028,1.028,0,0,0-.382-.8,1.537,1.537,0,0,0-1.041-.338,1.592,1.592,0,0,0-1.376.53.952.952,0,0,0-.2.591,1.371,1.371,0,0,0,.3.84,8.4,8.4,0,0,0,1.005,1.047,7.062,7.062,0,0,0,1.169-.779" transform="translate(-81.28 -197.45)"></path>
      <path class="a" d="M81.578,206.029h2.534l3.775,8.917,3.783-8.917h2.521v10.544H92.508V210.34c0-.215.014-.57.039-1.07s.031-1.031.031-1.6l-3.821,8.9h-1.77l-3.8-8.9v.321c0,.262.014.658.034,1.187s.036.915.036,1.159v6.233h-1.68Z" transform="translate(-81.576 -193.277)"></path>
    </g>
    <rect class="a" width="1.27" height="35.398" transform="translate(341.58 58.002)"></rect>
    <path class="a" d="M86.8,190.181h2.066l4.771,10.546H91.692l-1.382-3.185H85.168l-1.443,3.185H81.844Zm3,6.219-2.026-4.654L85.671,196.4Z" transform="translate(236.727 -132.18)"></path>
  </g>
</svg>
